<svg width="97" height="37" viewBox="0 0 97 37" fill="none" xmlns="http://www.w3.org/2000/svg">
<path d="M31.8352 13.3125H24.3693C24.233 12.3466 23.9545 11.4886 23.5341 10.7386C23.1136 9.97727 22.5739 9.32954 21.9148 8.79545C21.2557 8.26136 20.4943 7.85227 19.6307 7.56818C18.7784 7.28409 17.8523 7.14205 16.8523 7.14205C15.0455 7.14205 13.4716 7.59091 12.1307 8.48864C10.7898 9.375 9.75 10.6705 9.01136 12.375C8.27273 14.0682 7.90341 16.125 7.90341 18.5455C7.90341 21.0341 8.27273 23.125 9.01136 24.8182C9.76136 26.5114 10.8068 27.7898 12.1477 28.6534C13.4886 29.517 15.0398 29.9489 16.8011 29.9489C17.7898 29.9489 18.7045 29.8182 19.5455 29.5568C20.3977 29.2955 21.1534 28.9148 21.8125 28.4148C22.4716 27.9034 23.017 27.2841 23.4489 26.5568C23.892 25.8295 24.1989 25 24.3693 24.0682L31.8352 24.1023C31.642 25.7045 31.1591 27.25 30.3864 28.7386C29.625 30.2159 28.5966 31.5398 27.3011 32.7102C26.017 33.8693 24.483 34.7898 22.6989 35.4716C20.9261 36.142 18.9205 36.4773 16.6818 36.4773C13.5682 36.4773 10.7841 35.7727 8.32955 34.3636C5.88636 32.9545 3.95455 30.9148 2.53409 28.2443C1.125 25.5739 0.420455 22.3409 0.420455 18.5455C0.420455 14.7386 1.13636 11.5 2.56818 8.82955C4 6.15909 5.94318 4.125 8.39773 2.72727C10.8523 1.31818 13.6136 0.613635 16.6818 0.613635C18.7045 0.613635 20.5795 0.897726 22.3068 1.46591C24.0455 2.03409 25.5852 2.86364 26.9261 3.95454C28.267 5.03409 29.358 6.35795 30.1989 7.92614C31.0511 9.49432 31.5966 11.2898 31.8352 13.3125ZM68.142 7.17614V1.09091H96.8125V7.17614H86.125V36H78.8295V7.17614H68.142Z" fill="#33ADF7"/>
<path d="M47.696 36.5114C45.2869 36.5114 43.2074 36.0795 41.4574 35.2159C39.7074 34.3523 38.3608 33.1818 37.4176 31.7045C36.4858 30.2159 36.0199 28.5568 36.0199 26.7273C36.0199 25.3636 36.2926 24.1534 36.8381 23.0966C37.3835 22.0398 38.1449 21.0682 39.1222 20.1818C40.0994 19.2841 41.2358 18.392 42.5312 17.5057L49.2983 13.0568C50.1733 12.5 50.8153 11.9148 51.2244 11.3011C51.6335 10.6761 51.8381 10 51.8381 9.27273C51.8381 8.57955 51.5597 7.9375 51.0028 7.34659C50.446 6.75568 49.6562 6.46591 48.6335 6.47727C47.9517 6.47727 47.3608 6.63068 46.8608 6.9375C46.3608 7.23295 45.9688 7.625 45.6847 8.11364C45.4119 8.59091 45.2756 9.125 45.2756 9.71591C45.2756 10.4432 45.4801 11.1818 45.8892 11.9318C46.2983 12.6818 46.8438 13.4773 47.5256 14.3182C48.2074 15.1477 48.9517 16.0455 49.7585 17.0114L66.3097 36H58.7415L44.9347 20.625C44.0256 19.5909 43.1165 18.5114 42.2074 17.3864C41.3097 16.25 40.5597 15.0455 39.9574 13.7727C39.3551 12.4886 39.054 11.0966 39.054 9.59659C39.054 7.90341 39.446 6.38068 40.2301 5.02841C41.0256 3.67614 42.1392 2.60795 43.571 1.82386C45.0028 1.02841 46.6733 0.630681 48.5824 0.630681C50.446 0.630681 52.054 1.01136 53.4062 1.77273C54.7699 2.52273 55.8153 3.52273 56.5426 4.77273C57.2813 6.01136 57.6506 7.375 57.6506 8.86364C57.6506 10.5114 57.2415 12.0057 56.4233 13.3466C55.6165 14.6761 54.4801 15.8693 53.0142 16.9261L45.8892 22.0568C44.9233 22.7614 44.2074 23.483 43.7415 24.2216C43.2869 24.9489 43.0597 25.6477 43.0597 26.3182C43.0597 27.1477 43.2642 27.892 43.6733 28.5511C44.0824 29.2102 44.6619 29.733 45.4119 30.1193C46.1619 30.4943 47.0426 30.6818 48.054 30.6818C49.2812 30.6818 50.4915 30.4034 51.6847 29.8466C52.8892 29.2784 53.9801 28.4773 54.9574 27.4432C55.946 26.3977 56.7358 25.1591 57.3267 23.7273C57.9176 22.2955 58.2131 20.7102 58.2131 18.9716H64.2301C64.2301 21.108 63.9972 23.0341 63.5312 24.75C63.0653 26.4545 62.4176 27.9432 61.5881 29.2159C60.7585 30.4773 59.8097 31.5114 58.7415 32.3182C58.4006 32.5341 58.071 32.7386 57.7528 32.9318C57.4347 33.125 57.1051 33.3295 56.7642 33.5455C55.4688 34.5909 54.0199 35.3466 52.4176 35.8125C50.8267 36.2784 49.2528 36.5114 47.696 36.5114Z" fill="white"/>
</svg>
