<svg width="197" height="24" viewBox="0 0 197 24" fill="none" xmlns="http://www.w3.org/2000/svg">
<path d="M15.9176 7.65625H12.1847C12.1165 7.1733 11.9773 6.74432 11.767 6.36932C11.5568 5.98864 11.2869 5.66477 10.9574 5.39773C10.6278 5.13068 10.2472 4.92614 9.81534 4.78409C9.3892 4.64205 8.92614 4.57102 8.42614 4.57102C7.52273 4.57102 6.7358 4.79545 6.06534 5.24432C5.39489 5.6875 4.875 6.33523 4.50568 7.1875C4.13636 8.03409 3.9517 9.0625 3.9517 10.2727C3.9517 11.517 4.13636 12.5625 4.50568 13.4091C4.88068 14.2557 5.40341 14.8949 6.07386 15.3267C6.74432 15.7585 7.51989 15.9744 8.40057 15.9744C8.89489 15.9744 9.35227 15.9091 9.77273 15.7784C10.1989 15.6477 10.5767 15.4574 10.9062 15.2074C11.2358 14.9517 11.5085 14.642 11.7244 14.2784C11.946 13.9148 12.0994 13.5 12.1847 13.0341L15.9176 13.0511C15.821 13.8523 15.5795 14.625 15.1932 15.3693C14.8125 16.108 14.2983 16.7699 13.6506 17.3551C13.0085 17.9347 12.2415 18.3949 11.3494 18.7358C10.4631 19.071 9.46023 19.2386 8.34091 19.2386C6.78409 19.2386 5.39205 18.8864 4.16477 18.1818C2.94318 17.4773 1.97727 16.4574 1.26705 15.1222C0.5625 13.7869 0.210227 12.1705 0.210227 10.2727C0.210227 8.36932 0.568182 6.75 1.28409 5.41477C2 4.07955 2.97159 3.0625 4.19886 2.36364C5.42614 1.65909 6.80682 1.30682 8.34091 1.30682C9.35227 1.30682 10.2898 1.44886 11.1534 1.73295C12.0227 2.01705 12.7926 2.43182 13.4631 2.97727C14.1335 3.51704 14.679 4.17898 15.0994 4.96307C15.5256 5.74716 15.7983 6.64489 15.9176 7.65625ZM25.7264 1.54545V19H22.0957V1.54545H25.7264ZM32.2348 19V5.90909H35.8655V19H32.2348ZM34.0587 4.22159C33.5189 4.22159 33.0558 4.04261 32.6695 3.68466C32.2888 3.32102 32.0984 2.88636 32.0984 2.38068C32.0984 1.88068 32.2888 1.4517 32.6695 1.09375C33.0558 0.730113 33.5189 0.548295 34.0587 0.548295C34.5984 0.548295 35.0587 0.730113 35.4393 1.09375C35.8257 1.4517 36.0189 1.88068 36.0189 2.38068C36.0189 2.88636 35.8257 3.32102 35.4393 3.68466C35.0587 4.04261 34.5984 4.22159 34.0587 4.22159ZM42.3739 19V5.90909H45.8341V8.21875H45.9875C46.2602 7.4517 46.7148 6.84659 47.3511 6.40341C47.9875 5.96023 48.7489 5.73864 49.6352 5.73864C50.533 5.73864 51.2972 5.96307 51.9278 6.41193C52.5585 6.85511 52.979 7.45739 53.1892 8.21875H53.3256C53.5926 7.46875 54.0756 6.86932 54.7744 6.42045C55.479 5.96591 56.3114 5.73864 57.2716 5.73864C58.4932 5.73864 59.4847 6.12784 60.246 6.90625C61.0131 7.67898 61.3966 8.77557 61.3966 10.196V19H57.7744V10.9119C57.7744 10.1847 57.5812 9.6392 57.1949 9.27557C56.8085 8.91193 56.3256 8.73011 55.746 8.73011C55.0869 8.73011 54.5727 8.94034 54.2034 9.3608C53.8341 9.77557 53.6494 10.3239 53.6494 11.0057V19H50.1295V10.8352C50.1295 10.1932 49.9449 9.68182 49.5756 9.30114C49.2119 8.92045 48.7318 8.73011 48.1352 8.73011C47.7318 8.73011 47.3682 8.83239 47.0443 9.03693C46.7261 9.2358 46.4733 9.51705 46.2858 9.88068C46.0983 10.2386 46.0045 10.6591 46.0045 11.142V19H42.3739ZM71.5974 19.2472C70.7622 19.2472 70.0179 19.1023 69.3645 18.8125C68.7111 18.517 68.194 18.0824 67.8134 17.5085C67.4384 16.929 67.2509 16.2074 67.2509 15.3438C67.2509 14.6165 67.3844 14.0057 67.6514 13.5114C67.9185 13.017 68.2821 12.6193 68.7423 12.3182C69.2026 12.017 69.7253 11.7898 70.3105 11.6364C70.9014 11.483 71.5207 11.375 72.1685 11.3125C72.9298 11.233 73.5435 11.1591 74.0094 11.0909C74.4753 11.017 74.8134 10.9091 75.0236 10.767C75.2338 10.625 75.3389 10.4148 75.3389 10.1364V10.0852C75.3389 9.54545 75.1685 9.12784 74.8276 8.83239C74.4923 8.53693 74.0151 8.3892 73.3957 8.3892C72.7423 8.3892 72.2224 8.53409 71.8361 8.82386C71.4497 9.10795 71.194 9.46591 71.069 9.89773L67.7111 9.625C67.8815 8.82955 68.2168 8.14205 68.7168 7.5625C69.2168 6.97727 69.8616 6.52841 70.6514 6.21591C71.4469 5.89773 72.3673 5.73864 73.4128 5.73864C74.1401 5.73864 74.8361 5.82386 75.5009 5.99432C76.1713 6.16477 76.7651 6.42898 77.2821 6.78693C77.8048 7.14489 78.2168 7.60511 78.5179 8.16761C78.819 8.72443 78.9696 9.39205 78.9696 10.1705V19H75.5264V17.1847H75.4241C75.2139 17.5938 74.9327 17.9545 74.5804 18.267C74.2281 18.5739 73.8048 18.8153 73.3105 18.9915C72.8162 19.1619 72.2452 19.2472 71.5974 19.2472ZM72.6372 16.7415C73.1713 16.7415 73.6429 16.6364 74.052 16.4261C74.4611 16.2102 74.7821 15.9205 75.0151 15.5568C75.248 15.1932 75.3645 14.7812 75.3645 14.321V12.9318C75.2509 13.0057 75.0946 13.0739 74.8957 13.1364C74.7026 13.1932 74.4838 13.2472 74.2395 13.2983C73.9952 13.3437 73.7509 13.3864 73.5065 13.4261C73.2622 13.4602 73.0406 13.4915 72.8418 13.5199C72.4156 13.5824 72.0435 13.6818 71.7253 13.8182C71.4071 13.9545 71.1599 14.1392 70.9838 14.3722C70.8077 14.5994 70.7196 14.8835 70.7196 15.2244C70.7196 15.7188 70.8986 16.0966 71.2565 16.358C71.6202 16.6136 72.0804 16.7415 72.6372 16.7415ZM90.7386 19.2557C89.5341 19.2557 88.4943 19.0398 87.6193 18.608C86.7443 18.1761 86.071 17.5909 85.5994 16.8523C85.1335 16.108 84.9006 15.2784 84.9006 14.3636C84.9006 13.6818 85.0369 13.0767 85.3097 12.5483C85.5824 12.0199 85.9631 11.5341 86.4517 11.0909C86.9403 10.642 87.5085 10.196 88.1562 9.75284L91.5398 7.52841C91.9773 7.25 92.2983 6.95739 92.5028 6.65057C92.7074 6.33807 92.8097 6 92.8097 5.63636C92.8097 5.28977 92.6705 4.96875 92.392 4.67329C92.1136 4.37784 91.7188 4.23295 91.2074 4.23864C90.8665 4.23864 90.571 4.31534 90.321 4.46875C90.071 4.61648 89.875 4.8125 89.733 5.05682C89.5966 5.29545 89.5284 5.5625 89.5284 5.85795C89.5284 6.22159 89.6307 6.59091 89.8352 6.96591C90.0398 7.34091 90.3125 7.73864 90.6534 8.15909C90.9943 8.57386 91.3665 9.02273 91.7699 9.50568L100.045 19H96.2614L89.358 11.3125C88.9034 10.7955 88.4489 10.2557 87.9943 9.69318C87.5455 9.125 87.1705 8.52273 86.8693 7.88636C86.5682 7.24432 86.4176 6.54829 86.4176 5.79829C86.4176 4.9517 86.6136 4.19034 87.0057 3.5142C87.4034 2.83807 87.9602 2.30398 88.6761 1.91193C89.392 1.5142 90.2273 1.31534 91.1818 1.31534C92.1136 1.31534 92.9176 1.50568 93.5938 1.88636C94.2756 2.26136 94.7983 2.76136 95.1619 3.38636C95.5313 4.00568 95.7159 4.6875 95.7159 5.43182C95.7159 6.25568 95.5114 7.00284 95.1023 7.6733C94.6989 8.33807 94.1307 8.93466 93.3977 9.46307L89.8352 12.0284C89.3523 12.3807 88.9943 12.7415 88.7614 13.1108C88.5341 13.4744 88.4205 13.8239 88.4205 14.1591C88.4205 14.5739 88.5227 14.946 88.7273 15.2756C88.9318 15.6051 89.2216 15.8665 89.5966 16.0597C89.9716 16.2472 90.4119 16.3409 90.9176 16.3409C91.5312 16.3409 92.1364 16.2017 92.733 15.9233C93.3352 15.6392 93.8807 15.2386 94.3693 14.7216C94.8636 14.1989 95.2585 13.5795 95.554 12.8636C95.8494 12.1477 95.9972 11.3551 95.9972 10.4858H99.0057C99.0057 11.554 98.8892 12.517 98.6562 13.375C98.4233 14.2273 98.0994 14.9716 97.6847 15.608C97.2699 16.2386 96.7955 16.7557 96.2614 17.1591C96.0909 17.267 95.9261 17.3693 95.767 17.4659C95.608 17.5625 95.4432 17.6648 95.2727 17.7727C94.625 18.2955 93.9006 18.6733 93.0994 18.9062C92.304 19.1392 91.517 19.2557 90.7386 19.2557ZM103.202 4.58807V1.54545H117.537V4.58807H112.194V19H108.546V4.58807H103.202ZM127.498 19.2557C126.151 19.2557 124.992 18.983 124.02 18.4375C123.054 17.8864 122.31 17.108 121.787 16.1023C121.265 15.0909 121.003 13.8949 121.003 12.5142C121.003 11.1676 121.265 9.9858 121.787 8.96875C122.31 7.9517 123.046 7.15909 123.995 6.59091C124.949 6.02273 126.069 5.73864 127.353 5.73864C128.216 5.73864 129.02 5.87784 129.765 6.15625C130.515 6.42898 131.168 6.84091 131.725 7.39205C132.287 7.94318 132.725 8.63636 133.037 9.47159C133.35 10.3011 133.506 11.2727 133.506 12.3864V13.3835H122.452V11.1335H130.088C130.088 10.6108 129.975 10.1477 129.748 9.74432C129.52 9.34091 129.205 9.02557 128.802 8.7983C128.404 8.56534 127.941 8.44886 127.412 8.44886C126.861 8.44886 126.373 8.5767 125.946 8.83239C125.526 9.08239 125.196 9.42045 124.958 9.84659C124.719 10.267 124.597 10.7358 124.591 11.2528V13.392C124.591 14.0398 124.711 14.5994 124.949 15.071C125.194 15.5426 125.537 15.9062 125.981 16.1619C126.424 16.4176 126.949 16.5455 127.557 16.5455C127.961 16.5455 128.33 16.4886 128.665 16.375C129 16.2614 129.287 16.0909 129.526 15.8636C129.765 15.6364 129.946 15.358 130.071 15.0284L133.429 15.25C133.259 16.0568 132.91 16.7614 132.381 17.3636C131.858 17.9602 131.182 18.4261 130.353 18.7614C129.529 19.0909 128.577 19.2557 127.498 19.2557ZM139.475 19V5.90909H142.936V8.21875H143.089C143.362 7.4517 143.816 6.84659 144.453 6.40341C145.089 5.96023 145.85 5.73864 146.737 5.73864C147.635 5.73864 148.399 5.96307 149.029 6.41193C149.66 6.85511 150.081 7.45739 150.291 8.21875H150.427C150.694 7.46875 151.177 6.86932 151.876 6.42045C152.581 5.96591 153.413 5.73864 154.373 5.73864C155.595 5.73864 156.586 6.12784 157.348 6.90625C158.115 7.67898 158.498 8.77557 158.498 10.196V19H154.876V10.9119C154.876 10.1847 154.683 9.6392 154.296 9.27557C153.91 8.91193 153.427 8.73011 152.848 8.73011C152.188 8.73011 151.674 8.94034 151.305 9.3608C150.936 9.77557 150.751 10.3239 150.751 11.0057V19H147.231V10.8352C147.231 10.1932 147.046 9.68182 146.677 9.30114C146.313 8.92045 145.833 8.73011 145.237 8.73011C144.833 8.73011 144.47 8.83239 144.146 9.03693C143.828 9.2358 143.575 9.51705 143.387 9.88068C143.2 10.2386 143.106 10.6591 143.106 11.142V19H139.475ZM164.966 23.9091V5.90909H168.546V8.10795H168.708C168.867 7.75568 169.097 7.39773 169.398 7.03409C169.705 6.66477 170.102 6.35795 170.591 6.11364C171.085 5.86364 171.699 5.73864 172.432 5.73864C173.386 5.73864 174.267 5.98864 175.074 6.48864C175.881 6.98295 176.526 7.73011 177.009 8.73011C177.492 9.72443 177.733 10.9716 177.733 12.4716C177.733 13.9318 177.497 15.1648 177.026 16.1705C176.56 17.1705 175.923 17.929 175.117 18.446C174.315 18.9574 173.418 19.2131 172.423 19.2131C171.719 19.2131 171.119 19.0966 170.625 18.8636C170.136 18.6307 169.736 18.3381 169.423 17.9858C169.111 17.6278 168.872 17.267 168.708 16.9034H168.597V23.9091H164.966ZM168.52 12.4545C168.52 13.233 168.628 13.9119 168.844 14.4915C169.06 15.071 169.372 15.5227 169.781 15.8466C170.19 16.1648 170.688 16.3239 171.273 16.3239C171.864 16.3239 172.364 16.1619 172.773 15.8381C173.182 15.5085 173.492 15.054 173.702 14.4744C173.918 13.8892 174.026 13.2159 174.026 12.4545C174.026 11.6989 173.921 11.0341 173.71 10.4602C173.5 9.88636 173.19 9.4375 172.781 9.11364C172.372 8.78977 171.869 8.62784 171.273 8.62784C170.682 8.62784 170.182 8.78409 169.773 9.09659C169.369 9.40909 169.06 9.85227 168.844 10.4261C168.628 11 168.52 11.6761 168.52 12.4545ZM189.668 19.2557C188.344 19.2557 187.2 18.9744 186.234 18.4119C185.273 17.8437 184.532 17.054 184.009 16.0426C183.487 15.0256 183.225 13.8466 183.225 12.5057C183.225 11.1534 183.487 9.97159 184.009 8.96023C184.532 7.94318 185.273 7.15341 186.234 6.59091C187.2 6.02273 188.344 5.73864 189.668 5.73864C190.992 5.73864 192.134 6.02273 193.094 6.59091C194.06 7.15341 194.805 7.94318 195.327 8.96023C195.85 9.97159 196.112 11.1534 196.112 12.5057C196.112 13.8466 195.85 15.0256 195.327 16.0426C194.805 17.054 194.06 17.8437 193.094 18.4119C192.134 18.9744 190.992 19.2557 189.668 19.2557ZM189.685 16.4432C190.288 16.4432 190.79 16.2727 191.194 15.9318C191.597 15.5852 191.901 15.1136 192.106 14.517C192.316 13.9205 192.421 13.2415 192.421 12.4801C192.421 11.7188 192.316 11.0398 192.106 10.4432C191.901 9.84659 191.597 9.375 191.194 9.02841C190.79 8.68182 190.288 8.50852 189.685 8.50852C189.077 8.50852 188.566 8.68182 188.151 9.02841C187.742 9.375 187.433 9.84659 187.222 10.4432C187.018 11.0398 186.915 11.7188 186.915 12.4801C186.915 13.2415 187.018 13.9205 187.222 14.517C187.433 15.1136 187.742 15.5852 188.151 15.9318C188.566 16.2727 189.077 16.4432 189.685 16.4432Z" fill="#F2F2F2"/>
</svg>
