<svg width="24" height="24" viewBox="0 0 24 24" fill="none" xmlns="http://www.w3.org/2000/svg">
<path d="M12 17.065C10.6739 17.065 9.40215 16.5382 8.46447 15.6005C7.52678 14.6629 7 13.3911 7 12.065C7 10.7389 7.52678 9.46715 8.46447 8.52947C9.40215 7.59178 10.6739 7.065 12 7.065C13.3261 7.065 14.5979 7.59178 15.5355 8.52947C16.4732 9.46715 17 10.7389 17 12.065C17 13.3911 16.4732 14.6629 15.5355 15.6005C14.5979 16.5382 13.3261 17.065 12 17.065ZM12 2.065C12.2652 2.065 12.5196 2.17036 12.7071 2.35789C12.8946 2.54543 13 2.79978 13 3.065V5.065C13 5.33022 12.8946 5.58457 12.7071 5.77211C12.5196 5.95964 12.2652 6.065 12 6.065C11.7348 6.065 11.4804 5.95964 11.2929 5.77211C11.1054 5.58457 11 5.33022 11 5.065V3.065C11 2.79978 11.1054 2.54543 11.2929 2.35789C11.4804 2.17036 11.7348 2.065 12 2.065V2.065ZM12 18.065C12.2652 18.065 12.5196 18.1704 12.7071 18.3579C12.8946 18.5454 13 18.7998 13 19.065V21.065C13 21.3302 12.8946 21.5846 12.7071 21.7721C12.5196 21.9596 12.2652 22.065 12 22.065C11.7348 22.065 11.4804 21.9596 11.2929 21.7721C11.1054 21.5846 11 21.3302 11 21.065V19.065C11 18.7998 11.1054 18.5454 11.2929 18.3579C11.4804 18.1704 11.7348 18.065 12 18.065V18.065ZM3 11.065H5C5.26522 11.065 5.51957 11.1704 5.70711 11.3579C5.89464 11.5454 6 11.7998 6 12.065C6 12.3302 5.89464 12.5846 5.70711 12.7721C5.51957 12.9596 5.26522 13.065 5 13.065H3C2.73478 13.065 2.48043 12.9596 2.29289 12.7721C2.10536 12.5846 2 12.3302 2 12.065C2 11.7998 2.10536 11.5454 2.29289 11.3579C2.48043 11.1704 2.73478 11.065 3 11.065V11.065ZM19 11.065H21C21.2652 11.065 21.5196 11.1704 21.7071 11.3579C21.8946 11.5454 22 11.7998 22 12.065C22 12.3302 21.8946 12.5846 21.7071 12.7721C21.5196 12.9596 21.2652 13.065 21 13.065H19C18.7348 13.065 18.4804 12.9596 18.2929 12.7721C18.1054 12.5846 18 12.3302 18 12.065C18 11.7998 18.1054 11.5454 18.2929 11.3579C18.4804 11.1704 18.7348 11.065 19 11.065ZM19.071 4.994C19.2585 5.18153 19.3638 5.43584 19.3638 5.701C19.3638 5.96616 19.2585 6.22047 19.071 6.408L17.657 7.822C17.5648 7.91751 17.4544 7.99369 17.3324 8.0461C17.2104 8.09851 17.0792 8.1261 16.9464 8.12725C16.8136 8.1284 16.6819 8.1031 16.559 8.05282C16.4361 8.00254 16.3245 7.92829 16.2306 7.8344C16.1367 7.7405 16.0625 7.62885 16.0122 7.50595C15.9619 7.38306 15.9366 7.25138 15.9377 7.1186C15.9389 6.98582 15.9665 6.8546 16.0189 6.7326C16.0713 6.61059 16.1475 6.50025 16.243 6.408L17.657 4.994C17.8445 4.80653 18.0988 4.70121 18.364 4.70121C18.6292 4.70121 18.8835 4.80653 19.071 4.994ZM7.757 16.308C7.94447 16.4955 8.04979 16.7498 8.04979 17.015C8.04979 17.2802 7.94447 17.5345 7.757 17.722L6.343 19.136C6.25075 19.2315 6.14041 19.3077 6.0184 19.3601C5.8964 19.4125 5.76518 19.4401 5.6324 19.4412C5.49962 19.4424 5.36794 19.4171 5.24505 19.3668C5.12215 19.3165 5.0105 19.2423 4.9166 19.1484C4.82271 19.0545 4.74846 18.9429 4.69818 18.82C4.6479 18.6971 4.6226 18.5654 4.62375 18.4326C4.6249 18.2998 4.65249 18.1686 4.7049 18.0466C4.75731 17.9246 4.83349 17.8142 4.929 17.722L6.343 16.308C6.53053 16.1205 6.78484 16.0152 7.05 16.0152C7.31516 16.0152 7.56947 16.1205 7.757 16.308V16.308ZM6.343 4.994L7.757 6.408C7.93916 6.5966 8.03995 6.8492 8.03767 7.1114C8.0354 7.3736 7.93023 7.62441 7.74482 7.80982C7.55941 7.99523 7.3086 8.1004 7.0464 8.10267C6.7842 8.10495 6.5316 8.00416 6.343 7.822L4.93 6.408C4.74784 6.2194 4.64705 5.9668 4.64933 5.7046C4.6516 5.4424 4.75677 5.19159 4.94218 5.00618C5.12759 4.82077 5.3784 4.7156 5.6406 4.71333C5.9028 4.71105 6.1554 4.81184 6.344 4.994H6.343ZM17.657 16.308L19.071 17.722C19.2532 17.9106 19.354 18.1632 19.3517 18.4254C19.3494 18.6876 19.2442 18.9384 19.0588 19.1238C18.8734 19.3092 18.6226 19.4144 18.3604 19.4167C18.0982 19.419 17.8456 19.3182 17.657 19.136L16.243 17.722C16.1475 17.6298 16.0713 17.5194 16.0189 17.3974C15.9665 17.2754 15.9389 17.1442 15.9377 17.0114C15.9366 16.8786 15.9619 16.7469 16.0122 16.624C16.0625 16.5012 16.1367 16.3895 16.2306 16.2956C16.3245 16.2017 16.4361 16.1275 16.559 16.0772C16.6819 16.0269 16.8136 16.0016 16.9464 16.0028C17.0792 16.0039 17.2104 16.0315 17.3324 16.0839C17.4544 16.1363 17.5648 16.2125 17.657 16.308V16.308Z" fill="#716E6E"/>
</svg>
