<svg width="16" height="16" viewBox="0 0 16 16" fill="none" xmlns="http://www.w3.org/2000/svg">
<g clip-path="url(#clip0_26_2)">
<path d="M4.15798 12.025C4.22032 12.0458 4.27794 12.0786 4.32757 12.1217C4.37719 12.1648 4.41784 12.2172 4.44718 12.276C4.47653 12.3348 4.494 12.3988 4.4986 12.4643C4.5032 12.5299 4.49484 12.5957 4.47398 12.658L3.97398 14.158C3.95515 14.2226 3.92349 14.2827 3.88088 14.3347C3.83828 14.3868 3.78561 14.4297 3.72604 14.4609C3.66646 14.4921 3.6012 14.511 3.53416 14.5164C3.46712 14.5218 3.39968 14.5136 3.33587 14.4923C3.27206 14.4711 3.2132 14.4371 3.16281 14.3926C3.11242 14.3481 3.07154 14.2938 3.04261 14.2331C3.01368 14.1724 2.99729 14.1064 2.99443 14.0392C2.99158 13.972 3.00231 13.905 3.02598 13.842L3.52598 12.342C3.56777 12.2162 3.65782 12.1121 3.77634 12.0526C3.89486 11.9932 4.03214 11.9832 4.15798 12.025ZM7.15798 12.025C7.22032 12.0458 7.27794 12.0786 7.32757 12.1217C7.37719 12.1648 7.41784 12.2172 7.44718 12.276C7.47653 12.3348 7.494 12.3988 7.4986 12.4643C7.5032 12.5299 7.49484 12.5957 7.47398 12.658L6.47398 15.658C6.45515 15.7226 6.42349 15.7827 6.38088 15.8347C6.33828 15.8868 6.28561 15.9297 6.22604 15.9609C6.16646 15.9921 6.1012 16.011 6.03416 16.0164C5.96712 16.0218 5.89968 16.0136 5.83587 15.9923C5.77206 15.9711 5.7132 15.9371 5.66281 15.8926C5.61242 15.8481 5.57154 15.7938 5.54261 15.7331C5.51368 15.6724 5.49729 15.6064 5.49443 15.5392C5.49158 15.472 5.50231 15.405 5.52598 15.342L6.52598 12.342C6.56777 12.2162 6.65782 12.1121 6.77634 12.0526C6.89486 11.9932 7.03214 11.9832 7.15798 12.025V12.025ZM10.158 12.025C10.2203 12.0458 10.2779 12.0786 10.3276 12.1217C10.3772 12.1648 10.4178 12.2172 10.4472 12.276C10.4765 12.3348 10.494 12.3988 10.4986 12.4643C10.5032 12.5299 10.4948 12.5957 10.474 12.658L9.97398 14.158C9.95515 14.2226 9.92349 14.2827 9.88088 14.3347C9.83828 14.3868 9.78561 14.4297 9.72604 14.4609C9.66646 14.4921 9.6012 14.511 9.53416 14.5164C9.46712 14.5218 9.39968 14.5136 9.33587 14.4923C9.27206 14.4711 9.2132 14.4371 9.16281 14.3926C9.11242 14.3481 9.07154 14.2938 9.04261 14.2331C9.01368 14.1724 8.99729 14.1064 8.99444 14.0392C8.99158 13.972 9.00231 13.905 9.02598 13.842L9.52598 12.342C9.56777 12.2162 9.65782 12.1121 9.77634 12.0526C9.89486 11.9932 10.0321 11.9832 10.158 12.025ZM13.158 12.025C13.2203 12.0458 13.2779 12.0786 13.3276 12.1217C13.3772 12.1648 13.4178 12.2172 13.4472 12.276C13.4765 12.3348 13.494 12.3988 13.4986 12.4643C13.5032 12.5299 13.4948 12.5957 13.474 12.658L12.474 15.658C12.4552 15.7226 12.4235 15.7827 12.3809 15.8347C12.3383 15.8868 12.2856 15.9297 12.226 15.9609C12.1665 15.9921 12.1012 16.011 12.0342 16.0164C11.9671 16.0218 11.8997 16.0136 11.8359 15.9923C11.7721 15.9711 11.7132 15.9371 11.6628 15.8926C11.6124 15.8481 11.5715 15.7938 11.5426 15.7331C11.5137 15.6724 11.4973 15.6064 11.4944 15.5392C11.4916 15.472 11.5023 15.405 11.526 15.342L12.526 12.342C12.5678 12.2162 12.6578 12.1121 12.7763 12.0526C12.8949 11.9932 13.0321 11.9832 13.158 12.025ZM13.405 5.027C13.1973 3.98016 12.6602 3.02721 11.8722 2.30748C11.0842 1.58775 10.0866 1.13899 9.02523 1.02681C7.9639 0.914631 6.89452 1.14492 5.97345 1.68401C5.05237 2.2231 4.32791 3.04271 3.90598 4.023C3.43282 3.96849 2.95351 4.01113 2.4974 4.14831C2.04129 4.28548 1.61798 4.51431 1.25338 4.82078C0.888782 5.12724 0.590571 5.5049 0.377005 5.93063C0.163439 6.35635 0.0390124 6.82119 0.0113432 7.29668C-0.0163259 7.77217 0.0533446 8.2483 0.216089 8.69592C0.378834 9.14355 0.631228 9.55325 0.957818 9.89993C1.28441 10.2466 1.67832 10.523 2.11544 10.7122C2.55256 10.9013 3.02369 10.9993 3.49998 11H13C13.7611 11.0009 14.4941 10.7124 15.0505 10.1931C15.6069 9.67373 15.9451 8.96232 15.9965 8.20295C16.048 7.44359 15.809 6.69304 15.3278 6.10334C14.8466 5.51364 14.1592 5.12888 13.405 5.027V5.027Z" fill="#716E6E"/>
</g>
<defs>
<clipPath id="clip0_26_2">
<rect width="16" height="16" fill="white"/>
</clipPath>
</defs>
</svg>
