<svg width="30" height="30" viewBox="0 0 30 30" fill="none" xmlns="http://www.w3.org/2000/svg">
<path d="M13.5 10.5C9.80251 10.5 7.70551 12.861 7.40101 15.711H7.30801C4.92901 15.711 3.00001 17.5665 3.00001 19.8555C3.00001 22.1445 4.92901 24 7.30801 24H19.692C22.071 24 24 22.1445 24 19.8555C24 17.6505 22.212 15.849 19.9545 15.7185L19.599 15.711C19.2915 12.8415 17.1975 10.5 13.5 10.5ZM21.2355 4.5C20.2344 4.55429 19.2604 4.8447 18.393 5.3475C17.6689 5.76419 17.034 6.31953 16.5246 6.98178C16.0152 7.64402 15.6414 8.40018 15.4245 9.207C18.0105 9.777 19.869 11.517 20.628 13.9185L20.724 14.25L20.793 14.5305L21.0405 14.5755C22.3479 14.8439 23.5174 15.5679 24.3405 16.6185C25.343 16.1394 26.2026 15.4061 26.8335 14.4915C26.9152 14.3725 26.9685 14.2364 26.9893 14.0935C27.0101 13.9507 26.9979 13.805 26.9536 13.6677C26.9092 13.5303 26.834 13.405 26.7336 13.3013C26.6332 13.1976 26.5104 13.1183 26.3745 13.0695C24.3105 12.3315 23.199 11.5005 22.5645 10.2855C21.87 8.961 21.741 7.5555 22.2015 5.6655C22.2364 5.52268 22.2373 5.37369 22.2043 5.23045C22.1713 5.0872 22.1052 4.95367 22.0113 4.84054C21.9174 4.72742 21.7983 4.63784 21.6636 4.57896C21.5289 4.52009 21.3823 4.49356 21.2355 4.5015V4.5Z" fill="#F8F8F8"/>
</svg>
