<svg width="17" height="16" viewBox="0 0 17 16" fill="none" xmlns="http://www.w3.org/2000/svg">
<g clip-path="url(#clip0_26_4)">
<path d="M12.2027 11C12.0902 9.98614 11.6366 9.04059 10.9162 8.31836C10.1958 7.59614 9.25141 7.14011 8.23783 7.02504C7.22426 6.90997 6.20166 7.14268 5.3377 7.68503C4.47374 8.22737 3.81967 9.04716 3.48275 10.01C2.71069 10.0732 1.993 10.4326 1.47991 11.0129C0.966822 11.5933 0.698112 12.3496 0.730028 13.1236C0.761943 13.8976 1.09201 14.6292 1.65114 15.1654C2.21026 15.7015 2.9551 16.0006 3.72975 16H12.2297C12.8928 16 13.5287 15.7366 13.9975 15.2678C14.4664 14.7989 14.7297 14.163 14.7297 13.5C14.7297 12.837 14.4664 12.2011 13.9975 11.7322C13.5287 11.2634 12.8928 11 12.2297 11H12.2027Z" fill="#716E6E"/>
<path d="M11.2297 1.5C11.2297 1.36739 11.1771 1.24021 11.0833 1.14645C10.9895 1.05268 10.8623 1 10.7297 1C10.5971 1 10.4699 1.05268 10.3762 1.14645C10.2824 1.24021 10.2297 1.36739 10.2297 1.5V2.5C10.2297 2.63261 10.2824 2.75979 10.3762 2.85355C10.4699 2.94732 10.5971 3 10.7297 3C10.8623 3 10.9895 2.94732 11.0833 2.85355C11.1771 2.75979 11.2297 2.63261 11.2297 2.5V1.5ZM14.9727 3.464C15.0205 3.41788 15.0586 3.3627 15.0848 3.3017C15.111 3.2407 15.1248 3.17509 15.1254 3.1087C15.1259 3.04231 15.1133 2.97647 15.0881 2.91502C15.063 2.85357 15.0259 2.79775 14.9789 2.7508C14.932 2.70386 14.8762 2.66673 14.8147 2.64159C14.7533 2.61645 14.6874 2.6038 14.621 2.60437C14.5546 2.60495 14.489 2.61874 14.428 2.64495C14.367 2.67115 14.3119 2.70924 14.2657 2.757L13.5577 3.464C13.4638 3.55789 13.4111 3.68522 13.4111 3.818C13.4111 3.95078 13.4638 4.07811 13.5577 4.172C13.6516 4.26589 13.779 4.31863 13.9117 4.31863C14.0445 4.31863 14.1718 4.26589 14.2657 4.172L14.9727 3.464V3.464ZM7.19373 2.757C7.09943 2.66592 6.97313 2.61552 6.84203 2.61666C6.71093 2.6178 6.58553 2.67039 6.49282 2.76309C6.40012 2.85579 6.34753 2.9812 6.34639 3.1123C6.34525 3.2434 6.39565 3.3697 6.48673 3.464L7.19373 4.172C7.24022 4.21849 7.29541 4.25536 7.35615 4.28052C7.41689 4.30568 7.48199 4.31863 7.54773 4.31863C7.61347 4.31863 7.67857 4.30568 7.73931 4.28052C7.80005 4.25536 7.85524 4.21849 7.90173 4.172C7.94822 4.12551 7.98509 4.07032 8.01025 4.00958C8.03541 3.94884 8.04836 3.88374 8.04836 3.818C8.04836 3.75226 8.03541 3.68716 8.01025 3.62642C7.98509 3.56568 7.94822 3.51049 7.90173 3.464L7.19373 2.757V2.757ZM8.92773 6.131C9.05202 5.87344 9.23009 5.64553 9.44995 5.46264C9.6698 5.27975 9.92632 5.14614 10.2022 5.07082C10.4781 4.99549 10.7669 4.98021 11.0492 5.026C11.3315 5.07179 11.6007 5.17758 11.8386 5.33625C12.0765 5.49492 12.2777 5.70276 12.4284 5.94577C12.5792 6.18878 12.6761 6.46129 12.7126 6.74493C12.7491 7.02858 12.7244 7.31675 12.64 7.59001C12.5557 7.86327 12.4137 8.11527 12.2237 8.329C12.4227 8.61 12.5957 8.911 12.7397 9.227C13.0786 8.9208 13.3431 8.54126 13.5131 8.11732C13.683 7.69338 13.7539 7.23623 13.7204 6.78073C13.6869 6.32523 13.5498 5.88339 13.3196 5.48892C13.0893 5.09444 12.7721 4.75774 12.392 4.50448C12.0119 4.25122 11.579 4.08809 11.1263 4.02752C10.6736 3.96695 10.2131 4.01055 9.77976 4.15499C9.34647 4.29944 8.95187 4.5409 8.62606 4.86099C8.30025 5.18108 8.05183 5.57133 7.89973 6.002C8.25173 6.013 8.59573 6.057 8.92773 6.131ZM13.4117 10.205C14.0117 10.42 14.5367 10.795 14.9337 11.277C14.9882 11.2329 15.0327 11.1779 15.0645 11.1155C15.0964 11.053 15.1147 10.9846 15.1184 10.9147C15.122 10.8447 15.111 10.7748 15.0859 10.7094C15.0608 10.644 15.0223 10.5846 14.9727 10.535L14.2657 9.828C14.1945 9.7563 14.1031 9.70789 14.0038 9.68916C13.9044 9.67043 13.8017 9.68226 13.7092 9.72309C13.6167 9.76392 13.5388 9.83184 13.4857 9.91787C13.4326 10.0039 13.4068 10.104 13.4117 10.205ZM15.2297 6.5C15.0971 6.5 14.9699 6.55268 14.8762 6.64645C14.7824 6.74021 14.7297 6.86739 14.7297 7C14.7297 7.13261 14.7824 7.25979 14.8762 7.35355C14.9699 7.44732 15.0971 7.5 15.2297 7.5H16.2297C16.3623 7.5 16.4895 7.44732 16.5833 7.35355C16.6771 7.25979 16.7297 7.13261 16.7297 7C16.7297 6.86739 16.6771 6.74021 16.5833 6.64645C16.4895 6.55268 16.3623 6.5 16.2297 6.5H15.2297Z" fill="#716E6E"/>
</g>
<defs>
<clipPath id="clip0_26_4">
<rect width="16" height="16" fill="white" transform="translate(0.729736)"/>
</clipPath>
</defs>
</svg>
